<svg xmlns="http://www.w3.org/2000/svg" viewBox="0 0 170 188"><defs><style>.cls-1{fill:#4338ca;}.cls-2{fill:#4b3ddb;}.cls-3{fill:#4236c2;}</style></defs><g id="icon"><path class="cls-1" d="M67.85,48.91V175.07a12.34,12.34,0,0,1-12.34,12.34h-40A12.33,12.33,0,0,1,3.2,175.07V66.48a11.44,11.44,0,0,1,1-1.11l31-31H53.29Z"/><rect class="cls-1" x="63.2" y="50.35" width="90" height="81" rx="12.34"/><path class="cls-2" d="M169.2,12.85v162a12.34,12.34,0,0,1-12.34,12.34H112.54a12.17,12.17,0,0,1-5.09-1.1,12.36,12.36,0,0,1-6.15-6.15,12.21,12.21,0,0,1-1.1-5.09v-162A12.34,12.34,0,0,1,112.54.51h44.32A12.34,12.34,0,0,1,169.2,12.85Z"/><path class="cls-3" d="M169.2,150.26v24.59a12.34,12.34,0,0,1-12.34,12.34H112.54a12.17,12.17,0,0,1-5.09-1.1L4.18,82.82a11.44,11.44,0,0,1-1-1.11,12.33,12.33,0,0,1,0-15.23,11.44,11.44,0,0,1,1-1.11L35.52,34A12.34,12.34,0,0,1,53,34Z"/></g></svg>