<svg xmlns="http://www.w3.org/2000/svg" viewBox="0 0 282.13 297.5"><defs><style>.cls-1{fill:#f7f7f7;stroke:#c2ccd3;stroke-miterlimit:10;}</style></defs><g id="Calque_2" data-name="Calque 2"><g id="Calque_1-2" data-name="Calque 1"><path class="cls-1" d="M281,43.88l-7.29-5.28a1.64,1.64,0,0,1-.67-1.32V14.69A14.19,14.19,0,0,0,258.81.5H14.69A14.19,14.19,0,0,0,.5,14.69V282.81A14.19,14.19,0,0,0,14.69,297H258.81A14.19,14.19,0,0,0,273,282.81V55.17a1.62,1.62,0,0,1,.48-1.15l7.67-7.67A1.63,1.63,0,0,0,281,43.88Z"/></g></g></svg>